<?xml version="1.0" standalone="no"?><svg xmlns="http://www.w3.org/2000/svg" viewBox="0 0 1440 320"><path fill="#273036" fill-opacity="1" d="M0,128L18.5,117.3C36.9,107,74,85,111,106.7C147.7,128,185,192,222,218.7C258.5,245,295,235,332,218.7C369.2,203,406,181,443,165.3C480,149,517,139,554,154.7C590.8,171,628,213,665,213.3C701.5,213,738,171,775,133.3C812.3,96,849,64,886,58.7C923.1,53,960,75,997,117.3C1033.8,160,1071,224,1108,256C1144.6,288,1182,288,1218,256C1255.4,224,1292,160,1329,144C1366.2,128,1403,160,1422,176L1440,192L1440,320L1421.5,320C1403.1,320,1366,320,1329,320C1292.3,320,1255,320,1218,320C1181.5,320,1145,320,1108,320C1070.8,320,1034,320,997,320C960,320,923,320,886,320C849.2,320,812,320,775,320C738.5,320,702,320,665,320C627.7,320,591,320,554,320C516.9,320,480,320,443,320C406.2,320,369,320,332,320C295.4,320,258,320,222,320C184.6,320,148,320,111,320C73.8,320,37,320,18,320L0,320Z"></path></svg>